<svg width="128" height="128" viewBox="0 0 128 128" fill="none" xmlns="http://www.w3.org/2000/svg">
<g clip-path="url(#clip0_21_2)">
<g clip-path="url(#clip1_21_2)">
<path d="M4.70593 31.0454V17.7639C4.70593 14.2415 6.09967 10.8633 8.58055 8.37253C11.0614 5.88177 14.4262 4.48248 17.9347 4.48248H31.1635M97.3073 4.48248H110.536C110.536 4.48248 117.409 5.88177 119.89 8.37253C122.371 10.8633 123.765 14.2415 123.765 17.7639V31.0454M123.765 97.4526V110.734C123.765 114.257 122.371 117.635 119.89 120.126C117.409 122.616 114.044 124.016 110.536 124.016H97.3073M31.1635 124.016H17.9347C14.4262 124.016 11.0614 122.616 8.58055 120.126C6.09967 117.635 4.70593 114.257 4.70593 110.734V97.4526" stroke="#415CF7" stroke-width="10.6667" stroke-linecap="round" stroke-linejoin="round"/>
<path d="M42.3662 70.8085L67.6056 32.6808V58.0993H85.6338L60.3944 96.227V70.8085H42.3662Z" stroke="#874AEF" stroke-width="8" stroke-linejoin="round"/>
</g>
</g>
<defs>
<clipPath id="clip0_21_2">
<rect width="128" height="128" fill="white"/>
</clipPath>
<clipPath id="clip1_21_2">
<rect width="128" height="128" fill="white"/>
</clipPath>
</defs>
</svg>
